<svg width="32" height="32" viewBox="0 0 32 32" fill="none" xmlns="http://www.w3.org/2000/svg">
    <!-- 背景圆形 -->
    <circle cx="16" cy="16" r="15" fill="#FF6B35" stroke="#E55A2B" stroke-width="2" />

    <!-- 山峰轮廓 -->
    <path d="M8 20 L12 12 L16 16 L20 8 L24 20 Z" fill="#FFFFFF" opacity="0.9" />

    <!-- 太阳 -->
    <circle cx="22" cy="10" r="3" fill="#FFD700" />
    <path
        d="M22 4 L22 2 M22 18 L22 20 M28 10 L30 10 M14 10 L16 10 M25.5 6.5 L26.5 5.5 M25.5 13.5 L26.5 14.5 M18.5 5.5 L17.5 6.5 M18.5 14.5 L17.5 13.5"
        stroke="#FFD700" stroke-width="1.5" stroke-linecap="round" />

    <!-- 云朵 -->
    <path
        d="M6 8 C4 8 2 10 2 12 C2 14 4 16 6 16 C6.5 16 7 15.5 7 15 C7 14.5 6.5 14 6 14 C5.5 14 5 14.5 5 15 C5 15.5 5.5 16 6 16"
        fill="#FFFFFF" opacity="0.8" />

    <!-- 旅行包图标 -->
    <rect x="12" y="22" width="8" height="6" rx="1" fill="#FFFFFF" opacity="0.9" />
    <rect x="13" y="24" width="6" height="3" fill="#FF6B35" />
    <path d="M14 22 L14 20 M18 22 L18 20" stroke="#FFFFFF" stroke-width="1" stroke-linecap="round" />
</svg>